<svg width="89" height="90" fill="none" xmlns="http://www.w3.org/2000/svg"><path fill-rule="evenodd" clip-rule="evenodd" d="M64.939.748c-1.2.44-1.8 1.073-4.653 4.912a359.148 359.148 0 01-5.272 6.896c-4.615 5.84-5.93 8.034-7.472 12.463-.734 2.108-.741 2.12-1.401 2.305-.611.171-.794.394-2.293 2.791l-1.629 2.605-2.033.615c-1.118.339-2.192.671-2.387.74-.42.146-3.209 4.786-3.209 5.338 0 .955.894 1.566 1.763 1.206.35-.145.8-.745 1.632-2.178.632-1.088 1.224-2.025 1.317-2.082.092-.057 1.228-.407 2.524-.777l2.356-.673 1.81 1.136c.995.624 1.81 1.149 1.81 1.165.002.017.194 1.156.429 2.533s.375 2.59.312 2.695c-.131.219-14.843 22.06-14.923 22.155-.09.106-7.748-4.742-7.839-4.96-.046-.113 1.839-3.491 4.189-7.507 4.48-7.656 4.636-8.004 3.925-8.715-.363-.364-1.127-.455-1.552-.186-.136.087-.684.876-1.217 1.755l-.969 1.598-2.52.833c-3.893 1.287-6.139 2.332-10.256 4.77l-3.665 2.169c-5.319 3.14-9.555 7.51-11.88 12.252-1.965 4.006-2.309 7.27-1.13 10.715 1.591 4.646 5.207 8.635 9.755 10.76 2.234 1.043 3.383 1.3 5.79 1.294 2.204-.005 2.978-.154 5.91-1.135 4.522-1.513 7.264-5.18 7.291-9.747l.01-1.687.372.616c.647 1.07.986 2.432.884 3.555-.111 1.226-.605 2.096-1.541 2.716-1.688 1.117-.71 2.534 2.433 3.525 1.372.433 3.78.466 5.302.073 3.448-.89 6.66-3.772 8.067-7.24.261-.644.528-1.172.592-1.173.064-.001.255.408.425.91.39 1.155.392 3.061.003 4.233-.34 1.022-.201 1.645.446 2.014.518.296 3.934.287 5.006-.013 1.48-.414 3.548-1.54 4.632-2.524 1.866-1.692 3.096-4.004 3.53-6.636l.204-1.231 1.466.588c.806.324 2.033.71 2.727.858 3.256.693 8.307-.55 10.37-2.552 1.397-1.354 1.326-2.31-.216-2.944a13.22 13.22 0 01-1.534-.758l-.636-.39 2.24.07c3.872.12 4.856-.168 4.856-1.422 0-1.106-.27-1.19-3.947-1.238-2.91-.037-3.452-.091-4.964-.5-.934-.254-2.216-.695-2.849-.983-.633-.287-1.41-.522-1.726-.522-1.086 0-1.475 1.326-.72 2.452.556.827 2.892 2.658 4.968 3.893.964.574 1.755 1.093 1.758 1.154.017.353-2.986 1.166-4.825 1.308-1.743.135-3.707-.344-5.657-1.378l-1.412-.749-.467-1.819c-.68-2.649-1.858-5.318-3.046-6.903-1.132-1.51-3.083.124-1.992 1.668.523.74 1.678 3.146 2.099 4.373 1.806 5.26.705 10.08-2.822 12.36-1.22.788-2.489 1.286-3.697 1.45l-.878.119v-1.793c-.002-1.489-.079-2.008-.453-3.056-.591-1.652-2.568-4.64-3.221-4.867-.91-.317-1.765.29-1.781 1.262-.032 1.967-1.308 5.11-2.703 6.662-1.072 1.193-2.658 2.218-4.114 2.66-.96.292-1.523.352-2.754.293-.851-.04-1.596-.123-1.656-.183-.06-.06.144-.621.453-1.248 1.041-2.115.9-4.34-.444-7.022-2.002-3.995-6.227-7.569-9.992-8.453-1.498-.352-4.98-.356-6.352-.007-3.842.976-6.422 3.633-7.158 7.369-.248 1.258-.256 1.674-.062 3.292.344 2.865 1 4.539 2.48 6.328.376.454.617.826.535.826-.528 0-3.29-1.998-4.665-3.375-1.842-1.845-3.029-3.663-3.787-5.805-.708-1.998-.758-4.293-.137-6.284 1.455-4.662 5.641-9.733 10.803-13.086 3.533-2.295 7.94-3.972 11.958-4.55.89-.129 1.058-.56-1.467 3.758-1.807 3.09-2.047 3.75-1.583 4.352.258.335 10.09 6.547 10.765 6.803.32.12.593.117.87-.01.24-.11 1.97-2.519 4.297-5.987 2.141-3.19 3.954-5.87 4.027-5.953.35-.397 4.862 2.643 7.498 5.053.95.867 1.515.952 2.145.321.773-.772.6-1.236-1.04-2.8l-1.47-1.403 2.093.308c3.582.528 6.97.725 10.662.621 4.33-.121 6.287-.372 6.834-.875.548-.504.47-1.432-.16-1.9-.432-.321-.54-.327-2.086-.105-2.47.354-10.207.306-13.276-.083-1.944-.246-6.116-1.011-8.919-1.635-.24-.054-.366-.181-.313-.319.048-.126.867-1.394 1.82-2.82l1.733-2.59 1.083-.113a24.16 24.16 0 012.07-.113c2.341 0 6.463-1.051 8.9-2.27 2.881-1.44 5.5-3.579 7.293-5.955.994-1.318 2.586-4.239 2.586-4.746 0-.494.407-.38 1.861.525 4.064 2.527 6.915 5.607 8.104 8.754.316.836.377 1.363.377 3.257 0 2.24-.005 2.272-.627 3.564-.705 1.463-1.729 2.57-3.03 3.274-.925.501-1.25 1.062-1.058 1.826.423 1.688 7.117 2.05 10.033.541l.557-.288-.12 1.329c-.272 2.996-1.478 5.554-3.793 8.045-1.137 1.224-1.282 1.814-.603 2.451.74.695 1.32.516 2.588-.798 2.665-2.76 4.206-6.255 4.424-10.036.232-4.007-.693-5.272-2.795-3.825-1.226.843-2.724 1.338-4.357 1.441l-1.388.087.478-.59c1.561-1.926 2.233-3.8 2.344-6.538.1-2.465-.227-4.033-1.271-6.1-1.85-3.66-5.02-6.673-10.034-9.533-1.063-.607-2.102-1.103-2.31-1.103-.724 0-1.23.613-1.54 1.864-1.585 6.41-8.579 11.673-16.163 12.161l-1.723.111.55-.798c.654-.952.672-1.29.196-3.895l-.353-1.93 1.565-2.447c1.687-2.638 1.884-3.096 1.579-3.666-.18-.336-.036-.533 1.537-2.098 2.016-2.006 3.668-4.065 4.806-5.99.443-.75 2.245-4.225 4.005-7.723 1.76-3.499 3.688-7.283 4.284-8.41.968-1.83 1.091-2.176 1.151-3.243.109-1.92-.45-3.074-1.781-3.678-.838-.38-1.839-.401-2.78-.057zm1.95 3.257c.049.775-.096 1.117-2.027 4.78a407.458 407.458 0 00-4.344 8.551c-1.245 2.534-2.758 5.349-3.362 6.256-1.077 1.617-5.528 6.434-5.945 6.433-.107 0-.638-.295-1.18-.656l-.986-.655.567-1.734c1.628-4.974 2.628-6.69 7.493-12.86a368.9 368.9 0 005.249-6.872c1.53-2.06 2.97-3.835 3.197-3.947a1.93 1.93 0 01.85-.167c.39.032.44.121.487.87zM50.708 32.88c.031.027-1.056 1.868-1.276 2.16-.026.035-.95-.502-2.055-1.191-1.26-.787-1.964-1.328-1.889-1.453.066-.109.379-.606.696-1.105l.576-.907 1.954 1.23a176.26 176.26 0 011.994 1.266zM20.85 70.799c3.131.712 5.461 3.254 5.965 6.507.774 5-3.86 9.547-8.869 8.704-3.436-.578-5.988-3.167-6.522-6.616-.59-3.814 1.928-7.545 5.77-8.548 1.444-.377 2.166-.386 3.656-.047zm-1.26 2.41c-1.125.302-2.023 1.056-2.613 2.195-.45.865-.486 1.074-.427 2.425.055 1.225.151 1.635.568 2.4a6.225 6.225 0 002.558 2.499c.955.504 3.053.558 3.9.1 2.656-1.437 3.205-5.04 1.174-7.703-.672-.88-1.784-1.596-2.958-1.901-1.174-.306-1.122-.306-2.201-.015zm2.516 2.948c.491.322 1.096 1.343 1.263 2.132.262 1.238-.768 2.452-1.922 2.264-1.356-.22-2.33-1.483-2.324-3.011.008-1.725 1.446-2.392 2.983-1.385z" fill="#188B30"/></svg>