<svg width="89" height="84" fill="none" xmlns="http://www.w3.org/2000/svg"><path fill-rule="evenodd" clip-rule="evenodd" d="M25.802 1.345c-2.35.501-2.842.662-3.172 1.036-.623.705-.497 1.487.308 1.903.438.226.75.194 3.37-.354 1.588-.333 3.336-.603 3.885-.602 1.79.003 3.753.722 5.245 1.921.885.712 1.741 1.965 3.284 4.807 1.59 2.932 1.616 3.497.187 4.142-.635.286-.754.296-.888.074-.085-.14-.522-.88-.972-1.642-.864-1.465-1.574-2.091-2.584-2.281-.43-.08-3.257.453-10.116 1.908-5.236 1.11-9.632 2.02-9.77 2.02-.185-.001-.447-.945-1.015-3.654-.42-2.009-.72-3.697-.666-3.751.055-.055 1.253-.355 2.664-.667 2.036-.451 2.63-.65 2.882-.961.443-.547.396-1.16-.13-1.686-.518-.519-.384-.529-4.301.313-1.643.353-2.736.68-3.02.902-.521.41-.923 1.286-.923 2.013 0 .478-.057.525-.779.633-1.044.157-.985.184-1.24-.557-.284-.828-.853-1.27-1.631-1.267-.335 0-1.622.225-2.86.498C.992 6.659.509 6.986.51 8.159c.001.353.461 2.79 1.023 5.414 1.329 6.21 1.089 5.968 5.093 5.123 1.168-.247 2.332-.556 2.585-.688.576-.297.907-1.067.83-1.931l-.058-.663.861-.16c.759-.14.883-.12 1.043.167.345.62 1.258 1.443 1.73 1.562.29.073 1.347-.068 2.726-.363 1.238-.265 2.276-.45 2.306-.413.06.076.987 4.517.983 4.71-.001.067-4.056.145-9.011.174l-9.01.052-.632.483c-.396.301-.703.725-.82 1.13-.131.453-.172 9.326-.136 29.707l.051 29.06.36.49c.198.27.629.628.956.795.563.287 2.978.304 43.097.304 40.12 0 42.535-.017 43.097-.304.328-.167.759-.524.957-.794.358-.489.36-.582.408-19.817.027-10.629.006-19.5-.046-19.713-.052-.214-.336-.513-.631-.666-.445-.23-.625-.241-1.047-.066-.28.116-.586.352-.678.523-.092.172-.167 1.804-.167 3.627v3.314h-3.13l.044-12.733.045-12.732 1.521-.05 1.521-.051v13.685l.402.378c.57.535 1.39.5 1.845-.08.351-.446.36-.638.36-7.518 0-7.894-.003-7.913-1.216-8.618-.57-.331-.95-.357-5.93-.409l-5.321-.054-1.269-3.509c-.698-1.93-1.385-3.689-1.527-3.909-.504-.778-1.043-.904-3.892-.903-2.332 0-2.729.043-3.216.34-.707.43-.8.624-2.244 4.655l-1.198 3.344-2.303.002-2.303.002v-2.15c0-1.18-.08-2.564-.176-3.072-.553-2.915-2.68-5.034-5.59-5.57-2.851-.526-5.866 1.048-7.195 3.754-.496 1.01-.513 1.13-.57 4.04l-.057 2.998h-7.71c-7.191 0-7.714-.02-7.798-.304-.275-.935-1.367-6.49-1.29-6.567.153-.153 5.748-1.318 5.953-1.24.106.04.58.79 1.055 1.666 1.455 2.684 2.137 3.03 4.298 2.182 1.431-.561 2.577-1.582 2.91-2.595.462-1.397.2-2.416-1.372-5.328-2.344-4.346-3.487-5.675-5.987-6.958-2.604-1.336-4.96-1.48-9.238-.567zM5.925 9.098c.164.511.407.831.81 1.065.559.324.622.326 2 .038a55.66 55.66 0 001.698-.373c.213-.059.326.152.493.926.12.551.255 1.166.301 1.366.076.329-.052.392-1.362.673-.795.17-1.65.414-1.9.54-.566.29-.887 1.04-.817 1.907l.054.665-1.12.23c-.615.127-1.173.171-1.239.099-.126-.14-1.552-6.765-1.552-7.211 0-.175.297-.317.913-.435 1.476-.284 1.467-.286 1.722.51zm47.77 4.185c1.008.52 1.835 1.607 2.076 2.733.124.576.19 4.044.19 9.916v9.03h-8.344l.004-9.517c.004-8.873.026-9.564.324-10.212 1.023-2.22 3.556-3.079 5.75-1.95zm-24.597 18.29c1.972 9.272 3.63 17.036 3.683 17.251.099.392.098.392-2.18.392-1.253 0-2.279-.032-2.279-.071 0-.04-1.566-7.44-3.482-16.447-1.915-9.005-3.499-16.54-3.52-16.74-.034-.334.154-.41 2.048-.826 1.148-.252 2.1-.45 2.115-.44.017.011 1.643 7.607 3.615 16.88zm43.96-12.45c1.563 4.353 1.583 3.729-.204 6.165-.62.846-1.23 1.824-1.354 2.173-.177.495-.228 2.966-.234 11.195l-.008 10.56h-2.769l-.05-10.734c-.056-12.256.156-10.73-1.888-13.57-.662-.92-1.203-1.808-1.203-1.976 0-.167.597-1.949 1.326-3.96L68 15.32l1.846.002 1.846.001 1.365 3.8zM5.724 30.675c.083 6.6.102 6.936.424 7.17.56.41 1.412.311 1.823-.21.338-.43.36-.68.36-3.999v-3.54H21.63l1.979 9.344c1.088 5.138 2.015 9.44 2.06 9.56.066.172-1.73.217-8.627.217h-8.71v-3.293c0-3.202-.011-3.306-.407-3.766-.528-.614-1.416-.65-1.88-.077-.287.354-.32.75-.32 3.766v3.37H2.596V23.65l1.52.05 1.522.05.087 6.924zm14.496-6.866c.09.147.8 3.287.8 3.541 0 .076-2.855.139-6.344.139H8.332v-3.824h5.9c3.245 0 5.94.065 5.99.144zm24.702 1.768V27.4H30.867l-.371-1.785c-.205-.981-.333-1.823-.286-1.87.047-.047 3.377-.066 7.4-.04l7.313.044v1.826zm18.244-1.087c.238.454.792 1.315 1.23 1.912l.797 1.087h-6.626v-3.824h4.166l.433.825zm17.478 1.087v1.912h-3.053c-2.395 0-3.024-.047-2.921-.218.072-.119.509-.739.97-1.377.463-.638.925-1.401 1.027-1.695l.186-.534h3.791v1.912zM44.97 32.562l-.048 2.466-.596.154c-2.39.618-3.619 3.328-2.55 5.624.682 1.465 2.212 2.326 4.13 2.326h.841v6.084H35.516l-1.96-9.256c-1.076-5.091-1.996-9.393-2.043-9.56-.08-.287.322-.305 6.71-.305h6.796l-.048 2.467zm20.898 7.094v9.56h-9.212v-6.033l1.281-.097c2.61-.198 4.108-1.68 4.108-4.065 0-1.783-1.116-3.314-2.738-3.756l-.739-.2v-4.97h7.301v9.56zm14.776 0v9.56h-6.78v-19.12h6.78v9.56zm-22.099-1.894c.789.275 1.118 1.103.784 1.973-.284.74-.764.79-7.63.79-6.678 0-7.011-.03-7.51-.68-.546-.71-.034-1.923.907-2.15.76-.185 12.902-.124 13.45.067zm-4.497 8.412v3.042h-4.693v-6.084h4.693v3.042zm32.332 19.99v14.341H2.596V51.824H86.38v14.34zm-51.44-8.473c-1.22.622-1.31.913-1.37 4.444-.062 3.656.07 4.316.992 4.936l.59.397h18.671l.59-.397c.921-.62 1.054-1.28.992-4.936-.048-2.874-.086-3.204-.413-3.65-.821-1.118-.632-1.098-10.505-1.098-8.18 0-9.003.026-9.548.304zm17.853 4.78l.048 2.39H36.145v-2.318c0-1.275.052-2.37.117-2.435.065-.065 3.8-.097 8.3-.073l8.183.046.049 2.39z" fill="#188B30"/></svg>