<svg width="87" height="82" fill="none" xmlns="http://www.w3.org/2000/svg"><path fill-rule="evenodd" clip-rule="evenodd" d="M42.983.464c-2.579.129-2.499.072-4.311 3.021l-.352.574-.526-1.041c-.608-1.205-1.325-1.76-2.122-1.64-.61.09-3.705 1.51-4.129 1.894-.162.146-.645 1.316-1.072 2.599-.428 1.283-.84 2.332-.916 2.332-.077 0-.543-.328-1.036-.729-.494-.4-1.063-.816-1.264-.923-.476-.253-1.212-.24-1.7.03-.636.354-3.025 3.111-3.137 3.622-.057.261-.021 1.439.08 2.617.102 1.178.15 2.176.109 2.217-.041.042-.647-.127-1.346-.375-2.066-.734-2.63-.38-3.637 2.275-.368.97-.669 2-.669 2.288 0 .307.452 1.44 1.087 2.729 1.236 2.506 1.31 2.26-.742 2.46-1.3.128-1.605.274-2.033.975-.248.408-.326.844-.327 1.837v1.302l-5.837.003c-5.315.004-5.898.032-6.52.315-.82.372-1.634 1.31-1.897 2.188-.137.457-.19 4.459-.188 13.974C.502 57.582.52 58.38.81 59.014c.353.77 1.044 1.506 1.78 1.896.328.173 1.089.294 2.144.34 1.567.067 1.633.086 1.556.429-.045.197-.693 3.91-1.441 8.253-1.51 8.753-1.555 9.365-.767 10.398.805 1.055 1.243 1.192 3.815 1.192 2.206 0 2.303-.015 2.978-.462.385-.255.84-.746 1.013-1.092.172-.347.947-2.614 1.72-5.04l1.406-4.408h56.96l1.407 4.409c.773 2.425 1.547 4.692 1.72 5.039.173.346.628.837 1.013 1.092.675.447.771.462 2.978.462 2.572 0 3.01-.137 3.815-1.192.698-.916.697-1.908-.006-5.947-.541-3.11-.641-3.48-1.032-3.821-.55-.482-.95-.478-1.522.014-.57.49-.567.604.089 4.353.59 3.382.624 3.912.25 4.055-.146.056-.9.102-1.676.102-1.28 0-1.432-.035-1.65-.378-.175-.277-5.826-17.547-6.733-20.58l-.114-.38 3.487.045 3.488.045.717 4.178c.499 2.907.804 4.274 1.002 4.494.378.417 1.427.422 1.802.007.393-.433.355-1.017-.308-4.816-.323-1.847-.588-3.482-.588-3.631-.001-.23.282-.285 1.804-.35 1.4-.06 1.96-.157 2.494-.431.881-.455 1.681-1.368 1.905-2.176.256-.92.244-23.316-.013-24.083a3.936 3.936 0 00-1.61-2.025c-.627-.39-.7-.394-6.681-.477l-6.047-.084-.1-1.161c-.09-1.06-.15-1.207-.686-1.68-.324-.285-1.101-.828-1.728-1.207l-1.14-.688 1.101-.515c1.154-.54 1.63-1.11 1.63-1.956 0-.648-2.18-5.297-2.62-5.584-.207-.136-1.189-.394-2.182-.573-.993-.18-1.827-.347-1.853-.374-.027-.026.296-.481.716-1.011.853-1.075 1.087-1.963.708-2.683-.337-.639-3.839-3.78-4.441-3.984-.41-.14-.861-.092-2.184.228-.916.223-1.691.382-1.722.354-.031-.028.11-.507.314-1.066.432-1.186.36-1.96-.238-2.52-.35-.33-3.981-1.797-5.184-2.095-.608-.15-1.268.151-2.815 1.286-.81.596-1.296.856-1.363.731-.057-.107-.15-.67-.208-1.251-.126-1.274-.3-1.631-1-2.059-.565-.344-.547-.343-3.987-.172zm2.606 3.582c.151 1.64.354 2.22.953 2.724.913.768 1.502.62 3.667-.923 1.458-1.038 1.976-1.323 2.25-1.237.197.062.936.333 1.644.602l1.286.49-.476 1.376c-.55 1.59-.513 2.095.205 2.813.63.63 1.13.638 3.632.058l1.903-.44.533.478c.293.263.886.81 1.317 1.217l.783.738-.915 1.11c-1 1.213-1.258 1.859-1.045 2.621.275.987.74 1.243 2.92 1.611 1.105.187 2.15.382 2.322.434.191.058.595.693 1.036 1.63l.723 1.537-1.334.646c-1.452.702-1.83 1.156-1.83 2.192 0 .811.463 1.289 2.44 2.518 1.59.988 1.677 1.073 1.727 1.664l.052.623h-12.04l-.208-1.53a13.562 13.562 0 00-3.925-7.83c-1.467-1.442-2.002-1.82-3.803-2.685-3.916-1.881-8.123-1.832-12.116.143-1.576.78-1.962 1.067-3.463 2.568-1.39 1.393-1.825 1.959-2.467 3.21-.86 1.675-1.411 3.45-1.577 5.068l-.109 1.06-6.065-.044-6.066-.044-.05-.77-.05-.77 1.73-.187c1.667-.18 1.75-.209 2.276-.781.82-.893.747-1.331-.711-4.278l-1.257-2.54.306-.796c.169-.438.352-.924.408-1.08.09-.254.228-.233 1.38.21 1.74.67 2.31.652 3.065-.103l.596-.596-.115-2.436c-.063-1.34-.159-2.654-.212-2.919-.081-.407.028-.614.701-1.334.439-.47.859-.853.934-.853.075 0 .575.366 1.112.812 1.26 1.05 1.566 1.204 2.38 1.204 1.09 0 1.455-.524 2.457-3.532l.865-2.6.911-.45c.501-.249.997-.456 1.102-.462.105-.006.458.55.783 1.235.649 1.366 1.136 1.802 2.045 1.827.864.025 1.374-.447 2.617-2.419l1.102-1.746 1.502-.094a73.663 73.663 0 001.78-.126c.225-.026.297.193.389 1.186zm1.18 14.068c2.89.897 5.52 3.124 6.792 5.75.66 1.366 1.178 3.203 1.184 4.206l.003.467-2.38-.047-2.382-.046-.2-.84c-.428-1.806-1.28-3.094-2.643-4-3.758-2.493-8.79-.602-9.875 3.712l-.284 1.128-2.394.046-2.394.047.114-1.009c.441-3.897 3.215-7.543 6.87-9.03a16.173 16.173 0 012.047-.653c1.412-.324 4.045-.196 5.543.27zm-1.8 7.147c.826.344 1.684 1.177 2.07 2.007.614 1.325.799 1.26-3.545 1.26-4.292 0-4.102.06-3.602-1.14.344-.825 1.176-1.684 2.007-2.069.826-.383 2.228-.41 3.07-.058zm38.67 6.122c.33.33.336.56.336 11.655 0 10.895-.012 11.334-.321 11.716l-.321.397-19.224.044-19.223.044-.092-2.228c-.058-1.392-.192-2.501-.358-2.957-.366-1.006-1.163-1.96-2.091-2.506-.772-.454-.83-.461-4.393-.544l-3.612-.084-.088-1.68c-.05-.923-.177-1.837-.285-2.03-.425-.756-1.51-1.542-2.387-1.73-1.197-.258-16.89-.258-17.627-.001-.889.31-1.164 1.358-.525 1.998.327.327.562.336 8.86.338 6.535.002 8.623.052 8.945.215l.42.212.044 6.994c.038 6.193.013 7.025-.223 7.26-.238.238-1.69.266-13.92.266-13.56 0-13.658-.002-14.097-.348l-.443-.348V43.813h6.022l.349-.443c.453-.576.439-.944-.057-1.521l-.405-.472-2.955-.053-2.954-.052v-4.777c0-4.552.016-4.792.336-5.112.334-.334.56-.336 40.144-.336 39.585 0 39.81.002 40.145.336zM9.85 46.743c-2.711.967-4.073 4.157-2.822 6.61.88 1.725 2.121 2.566 3.96 2.684 2.577.166 4.416-1.156 5.05-3.629.442-1.728-.12-3.467-1.52-4.699-1.28-1.127-3.14-1.512-4.668-.966zm12.095 0c-2.583.92-3.916 3.63-3.045 6.185.353 1.036 1.39 2.18 2.457 2.712.691.345 1.117.434 2.056.433 2.027-.003 3.559-.984 4.418-2.83.575-1.233.495-3.12-.18-4.27-1.164-1.989-3.656-2.962-5.706-2.23zm-9.558 2.512c.662.342 1.053.834 1.208 1.524.194.858-.076 1.653-.765 2.258-1.085.953-2.873.592-3.489-.705-.37-.78-.353-1.427.055-2.096.654-1.074 1.975-1.507 2.991-.981zm12.045.007c.87.364 1.292 1.15 1.209 2.263-.059.79-.147.983-.679 1.47-.506.464-.743.56-1.378.56-1.911 0-2.999-1.715-2.122-3.35.56-1.043 1.793-1.435 2.97-.943zm16.704.536c.867.512 1.015.996 1.015 3.324v2.119l-3.906-.045-3.905-.045-.046-2.814-.046-2.813h3.212c2.671 0 3.29.046 3.676.274zm1.085 8.334c.042.208.118.745.17 1.193.131 1.138 1.004 2.683 2.016 3.57 3.317 2.904 8.543 1.497 10.017-2.697.178-.508.324-1.266.324-1.684v-.76h13.086l1.604 4.935c.882 2.714 1.603 5.02 1.603 5.123 0 .138-7.34.188-27.547.188-20.217 0-27.546-.05-27.546-.188 0-.103.463-1.613 1.03-3.354l1.03-3.166 6.906-.047c6.606-.045 6.936-.063 7.578-.395.854-.442 1.764-1.746 1.764-2.527v-.569h7.888l.077.378zm10.004.252c-.007 1.19-.916 2.583-2.078 3.183-.27.14-.915.29-1.43.334-.795.067-1.081.006-1.862-.396-1.222-.63-1.877-1.562-1.981-2.821l-.078-.93h7.433l-.004.63zm-36.949 3.023c.001.315-5.434 16.966-5.647 17.301-.218.343-.37.378-1.65.378-1.745 0-1.942-.07-1.942-.696 0-.272.643-4.2 1.428-8.73.785-4.53 1.428-8.268 1.428-8.307 0-.04 1.436-.072 3.191-.072 1.756 0 3.192.057 3.192.126z" fill="#188B30"/></svg>