<svg width="89" height="90" fill="none" xmlns="http://www.w3.org/2000/svg"><path fill-rule="evenodd" clip-rule="evenodd" d="M43.455.764c-.72.22-1.454.65-1.845 1.082-.202.224-5.11 7.924-10.907 17.11-7.114 11.274-10.54 16.853-10.54 17.165 0 1.06 1.475 1.571 2.21.767.196-.215 4.85-7.509 10.341-16.209 5.492-8.7 10.175-16.11 10.407-16.466.771-1.181 1.885-1.292 2.653-.264C46.614 5.075 85 66.141 85 66.353c0 .243-2.026 1.57-2.27 1.487-.085-.03-8.454-13.234-18.596-29.344S45.534 9.07 45.338 8.902a1.207 1.207 0 00-1.665.087c-.201.215-8.665 13.532-18.808 29.594S6.345 67.813 6.248 67.846c-.254.087-2.247-1.237-2.25-1.494 0-.12 3.48-5.73 7.735-12.465 5.818-9.212 7.735-12.378 7.735-12.776 0-1.045-1.259-1.611-2.046-.92-.19.167-3.85 5.858-8.134 12.646C1.548 65.105 1.5 65.185 1.43 66.222c-.09 1.343.309 1.971 1.92 3.02l1.169.761v2.216h-1.4c-1.614 0-2.269.258-2.779 1.095-.302.495-.34.887-.34 3.53 0 2.808.021 3.005.397 3.563.646.96.973 1.004 7.642 1.015l6.04.01.001 2.998c0 2.686.037 3.058.346 3.566.685 1.123 1.143 1.257 4.309 1.258 4.607 0 4.73-.123 4.73-4.737l.001-3.085h7.822l.001 3.085c0 4.617.121 4.737 4.748 4.737 2.672 0 2.885-.024 3.439-.394 1.059-.708 1.199-1.235 1.199-4.516v-2.912h7.649v2.912c0 3.281.14 3.808 1.199 4.516.554.37.767.394 3.438.394 4.627 0 4.748-.12 4.749-4.737v-3.085h7.822l.001 3.085c.001 4.614.124 4.737 4.73 4.737 3.166-.001 3.625-.135 4.31-1.258.309-.508.345-.88.346-3.566v-2.998l6.04-.01c6.67-.01 6.997-.054 7.643-1.015.375-.558.397-.755.397-3.564 0-2.642-.039-3.035-.34-3.53-.5-.819-1.172-1.094-2.676-1.094h-1.295l-.123-1.054c-.067-.58-.073-1.102-.013-1.162.06-.06.594-.427 1.186-.815 1.523-.999 1.92-1.642 1.83-2.966l-.07-1.043-19.773-31.376C56.85 16.546 47.67 2.137 47.326 1.782c-.952-.983-2.579-1.41-3.87-1.018zm-.172 22.9v9.157l-3.52-3.463c-1.936-1.905-3.547-3.523-3.578-3.594-.056-.125 6.9-11.256 7.033-11.256.035 0 .064 4.12.064 9.157zm6.989 4.806c-1.502 1.512-3.102 3.064-3.556 3.449l-.826.7V14.444l3.556 5.638 3.556 5.638-2.73 2.75zm-10.944 4.113c1.123 1.098 2.042 2.057 2.042 2.13 0 .073-2.464.133-5.475.133-3.012 0-5.476-.04-5.476-.089 0-.077 1.647-2.72 3.613-5.798l.596-.934 1.329 1.28c.73.704 2.248 2.18 3.37 3.278zm17.209-1.246c1.123 1.797 2.042 3.321 2.042 3.388 0 .066-2.482.12-5.517.12h-5.517l3.386-3.389c1.862-1.864 3.426-3.389 3.475-3.387.049 0 1.008 1.471 2.13 3.268zM70.483 53.47c9.38 14.9 10.57 16.677 11.335 16.92.017.005.086.42.152.92l.121.909-6.41.006c-6.856.006-6.833.003-7.168.885-.196.515.135 1.433.578 1.603.162.063 4.12.113 8.798.113h8.503v3.999H2.607v-3.999h31.169c31.128 0 31.17 0 31.55-.354a1.26 1.26 0 00-.078-1.893c-.442-.348-.653-.36-6.258-.36h-5.8v-13.48c0-11.62-.035-13.55-.259-13.983-.555-1.073-.325-1.045-8.432-1.045-8.106 0-7.876-.028-8.431 1.045-.224.433-.26 2.363-.26 13.983v13.48H7.126l.007-.913c.006-.853.048-.941.652-1.36.509-.352 2.59-3.528 9.85-15.036a8355.052 8355.052 0 0110.127-16.022l.921-1.435 15.86.003 15.862.004 10.078 16.01zm-19.9-5.5v1.651H38.415V46.32h12.168v1.651zm0 6.605v2.347H38.415V52.23h12.168v2.346zM20.818 57.02c-.935.508-1.002.88-1.002 5.551 0 6.171-.348 5.824 5.823 5.824 6.17 0 5.823.347 5.823-5.823 0-4.704-.066-5.058-1.037-5.56-.74-.383-8.9-.376-9.608.008zm38.177-.106c-.202.084-.535.366-.74.626-.358.455-.37.636-.37 5.072v4.6l.59.592.591.59h4.459c4.978 0 5.22-.047 5.73-1.122.255-.537.286-1.178.24-4.959l-.051-4.342-.568-.568-.568-.568-4.473-.037c-2.46-.02-4.639.032-4.84.116zm-30.14 5.657v3.216h-6.432v-6.431h6.432v3.215zm38.068 0v3.216h-6.431v-6.431h6.431v3.215zm-16.34-.695v2.347H38.415V59.53h12.168v2.346zm0 7.649v2.694H38.415V66.83h12.168v2.695zM20.86 84.039v2.608h-4.172v-5.215h4.172v2.607zm17.209 0v2.608h-4.172v-5.215h4.172v2.607zm17.035 0v2.608H50.93v-5.215h4.172v2.607zm17.209 0v2.608H68.14v-5.215h4.172v2.607z" fill="#188B30"/></svg>