<svg xmlns="http://www.w3.org/2000/svg"><defs><symbol id="phone" viewBox="0 0 28 29" fill="none"><path d="M23.207 17.852c-.975-.963-2.194-.963-3.163 0-.74.733-1.48 1.467-2.207 2.212-.198.206-.366.25-.609.112-.478-.26-.988-.472-1.448-.758-2.144-1.349-3.94-3.083-5.531-5.034-.79-.97-1.492-2.008-1.983-3.176-.1-.236-.08-.392.112-.584.74-.715 1.46-1.448 2.188-2.182 1.013-1.02 1.013-2.212-.007-3.238-.578-.584-1.156-1.156-1.734-1.74-.596-.597-1.187-1.2-1.79-1.79C6.06.723 4.841.723 3.872 1.68c-.746.733-1.46 1.485-2.22 2.206-.701.665-1.056 1.48-1.13 2.43-.118 1.548.26 3.009.795 4.432 1.094 2.946 2.76 5.563 4.78 7.961 2.728 3.245 5.985 5.812 9.795 7.664 1.716.833 3.493 1.473 5.426 1.578 1.33.075 2.486-.26 3.412-1.299.634-.708 1.349-1.354 2.02-2.032.995-1.007 1-2.225.013-3.22a944.062 944.062 0 00-3.556-3.548z" fill="currentColor"/></symbol><symbol id="burger" viewBox="0 0 26 26" fill="none"><rect y="1" width="26" height="3.545" rx="1.773" fill="currentColor"/><rect x="9.455" y="11.636" width="16.546" height="3.545" rx="1.773" fill="currentColor"/><rect y="22.273" width="26" height="3.545" rx="1.773" fill="currentColor"/></symbol><symbol id="house" viewBox="0 0 21 22" fill="none"><path fill-rule="evenodd" clip-rule="evenodd" d="M2.47.994c-.22.136-.254.235-.254.728s.046.617.278.739l.114.06v2.385l-.932.733c-.513.403-.98.778-1.04.833a.401.401 0 00-.096.473c.095.186.537.75.629.803.216.123.304.081.998-.478l.245-.197v9.753l-.194.129a2.14 2.14 0 00-.359.316c-.152.175-.39.61-.39.714 0 .025-.052.068-.117.095-.324.137-.627.614-.628.989a.665.665 0 01-.078.34c-.07.115-.079.202-.079.71 0 .506.01.598.077.709.164.274-.67.252 9.65.252h9.34l.085-.093c.113-.122.109-.287-.01-.409-.093-.093-.12-.098-.57-.098h-.473V17.6c0-1.584.006-2.88.012-2.88.008 0 .205.151.438.336.235.185.47.345.524.356.2.039.32-.05.62-.46.338-.464.372-.557.267-.737-.047-.081-1.22-1.032-3.157-2.558a353.886 353.886 0 00-3.231-2.53c-.186-.126-.501-.161-.696-.077-.075.032-.357.233-.627.446l-.49.387-.02-.478c-.023-.547-.069-.645-.301-.645-.244 0-.266.07-.288.89l-.02.73-2.292 1.806c-1.261.994-2.348 1.862-2.414 1.93-.094.095-.121.159-.121.279 0 .131.045.215.294.546.303.405.442.508.63.472.057-.011 1.414-1.053 3.016-2.316l2.912-2.296 2.168 1.71 2.167 1.711.01 3.13.01 3.128h-2.346l-.018-.346c-.015-.3-.03-.356-.107-.42-.117-.097-.297-.094-.395.006-.066.067-.079.133-.079.42v.34h-2.787v-4.601l1.384.01 1.384.01.02 1.394c.018 1.32.023 1.396.095 1.45.187.139.428.021.474-.23.013-.074.018-.748.012-1.5-.012-1.31-.016-1.372-.094-1.48-.18-.251-.194-.253-1.892-.253-1.674 0-1.72.005-1.887.22l-.085.11v4.87H9.527l-.014-.472c-.011-.37-.03-.495-.085-.582a.593.593 0 00-.514-.266h-.191l.024-.19c.06-.482-.16-1.116-.517-1.479-.713-.726-1.835-.757-2.556-.07-.181.172-.185.174-.358.134a1.174 1.174 0 00-.355-.015c-.18.026-.181.025-.329-.173a1.85 1.85 0 00-1.456-.727H3V6.615l2.15-1.694c1.181-.931 2.171-1.696 2.198-1.698.028-.002 1.022.761 2.209 1.696l2.159 1.7v.57c0 .517.007.578.078.65.128.13.295.12.422-.024.076-.086.089-.145.089-.417v-.317l.455.36c.641.506.691.5 1.179-.168.218-.299.268-.395.268-.515a.41.41 0 00-.054-.214c-.074-.091-6.343-5.03-6.474-5.101-.158-.085-.521-.073-.68.022a22.75 22.75 0 00-.937.713l-.854.673c-.037.03-.049-.005-.049-.148 0-.155.015-.191.089-.22a.534.534 0 00.307-.374c.065-.246.03-.781-.063-.94-.14-.242-.188-.25-1.615-.25C2.691.92 2.58.925 2.47.994zm2.533.725v.2H2.804v-.4h2.2v.2zm2.797.554c1.827 1.42 5.705 4.502 5.712 4.54.006.025-.039.104-.098.175l-.107.129-2.886-2.279c-1.587-1.253-2.925-2.29-2.974-2.303a.399.399 0 00-.176 0c-.049.012-1.255.943-2.68 2.068a1725.495 1725.495 0 01-2.892 2.28l-.302.236-.12-.155-.12-.155 3.01-2.375c2.879-2.271 3.136-2.47 3.2-2.473.016-.001.21.14.433.312zm-3.229.665v.419l-.657.52c-.362.287-.671.521-.687.522-.016 0-.03-.423-.03-.94v-.94h1.374v.42zm1.055 2.529a.663.663 0 00-.176.189c-.07.117-.074.253-.074 2.725 0 2.896-.016 2.725.267 2.9.12.074.209.078 1.688.079 1.709 0 1.748-.005 1.907-.232.084-.12.084-.124.084-2.748 0-2.361-.007-2.64-.064-2.739-.142-.244-.125-.242-1.905-.24-1.431 0-1.636.008-1.727.066zm1.419 1.152v.62h-1.06V6h1.06v.62zm1.688.002v.62l-.54-.01-.54-.012-.01-.61L7.632 6h1.101v.622zM7.045 8.38v.54h-1.06V7.84h1.06v.54zm1.688 0v.54h-1.1V7.84h1.1v.54zm-1.688 1.76v.62h-1.06V9.52h1.06v.62zm1.688 0v.622l-.54-.011-.54-.011-.01-.559c-.007-.306-.003-.58.008-.61.015-.039.151-.051.55-.051h.532v.62zm5.66-.068c2.756 2.166 5.366 4.228 5.428 4.29.074.072.074.075-.02.215-.052.078-.106.142-.121.143-.015 0-1.328-1.026-2.92-2.28-1.59-1.255-2.933-2.291-2.982-2.304a.282.282 0 00-.177.024c-.047.026-1.374 1.062-2.949 2.303-1.574 1.241-2.875 2.256-2.891 2.255-.016 0-.077-.066-.136-.145l-.107-.143.087-.07c3.956-3.124 6.058-4.76 6.115-4.76.04 0 .343.212.674.472zM3.699 17.36c.228.1.507.379.636.636.111.222.222.262.499.18.358-.106.7.014.906.317.089.132.108.203.108.403v.244l-.34.02c-.259.015-.358.038-.421.096-.097.09-.11.29-.027.406.053.075.132.079 1.953.098l1.898.02.011.35.011.35H1.156v-.72h1.413c1.361 0 1.416-.003 1.492-.08a.305.305 0 00-.025-.437c-.1-.08-.147-.083-1.413-.083h-1.31v-.106c0-.162.181-.372.411-.476.21-.094.217-.103.335-.478a1.206 1.206 0 011.64-.74zm8.98.046c-.157.088-.176.155-.176.616 0 .392.01.46.081.553a.238.238 0 00.213.105.238.238 0 00.214-.105c.071-.093.08-.16.08-.55-.002-.463-.022-.531-.183-.619-.104-.056-.128-.056-.228 0zm-5.24.24c.5.239.795.778.724 1.324l-.025.19H6.466l-.018-.29a1.45 1.45 0 00-.307-.83l-.12-.155.184-.128c.101-.071.256-.153.345-.183.245-.08.632-.05.887.072z" fill="currentColor"/></symbol><symbol id="room" viewBox="0 0 21 22" fill="none"><path fill-rule="evenodd" clip-rule="evenodd" d="M.247 1.034C.017 1.177 0 1.254 0 2.206c0 .83.003.864.09.992.123.184.238.23.567.231H.94l.002 2.462c0 2.654-.007 2.554.21 2.636.121.047.31-.027.352-.137.014-.035.025-1.164.025-2.508V3.438l.332-.014c.315-.013.34-.02.461-.142.121-.122.129-.146.142-.461l.014-.333H17.6l.014.333c.013.315.02.34.142.46.121.122.146.13.46.143l.333.014v15.125l-.332.014c-.315.013-.34.02-.461.142-.122.121-.129.145-.142.46l-.014.333h-2.444c-1.344 0-2.472.011-2.507.025-.11.042-.184.23-.138.352.083.217-.017.209 2.636.21l2.461.002v.284c.001.33.048.444.232.568.128.086.162.089 1 .089 1.272 0 1.239.033 1.239-1.247 0-.83-.003-.864-.09-.992-.123-.184-.238-.23-.567-.232h-.284V3.43l.284-.001c.33 0 .444-.047.568-.231.086-.128.089-.163.089-.992 0-.953-.016-1.03-.247-1.17-.115-.07-.202-.077-.992-.077-.838 0-.872.002-1 .089-.184.124-.23.238-.231.567V1.9H2.478l-.014-.333c-.013-.315-.02-.34-.142-.46l-.127-.13-.911-.01C.434.957.364.961.247 1.033zm1.635 1.16v.647H.588V1.547h1.294v.647zm17.61 0v.647h-1.295V1.547h1.295v.647zM3.267 4.056c-.293.178-.29.099-.132 3.312.104 2.114.12 2.32.19 2.412.18.244.445.333.702.238.06-.023.362-.292.67-.598l.559-.557 3.46 3.461 3.46 3.461-.556.56c-.306.307-.575.608-.598.67a.54.54 0 00.047.497c.198.29.044.267 2.621.394 2.83.14 2.956.14 3.123.039.293-.179.29-.097.131-3.313-.104-2.113-.12-2.32-.188-2.412-.18-.243-.446-.333-.703-.237-.06.022-.362.291-.67.598l-.559.556-1.931-1.927c-1.062-1.06-1.97-1.94-2.015-1.953-.185-.054-.41.175-.352.358.013.039.957 1.005 2.099 2.147 1.863 1.863 2.088 2.075 2.2 2.075.107 0 .207-.083.766-.641.417-.418.648-.622.66-.585.031.103.235 4.782.209 4.808-.026.026-4.707-.175-4.81-.207-.037-.011.168-.242.585-.66.559-.56.642-.659.642-.767 0-.112-.36-.483-3.762-3.886-2.92-2.92-3.784-3.762-3.858-3.762-.07 0-.265.169-.753.654-.421.419-.664.634-.675.598-.033-.107-.235-4.782-.208-4.81.028-.026 4.7.176 4.808.21.036.01-.18.255-.603.68-.61.613-.657.67-.632.773.037.155 2.56 2.68 2.678 2.68.14 0 .299-.166.299-.311 0-.114-.116-.243-1.134-1.262L7.903 6.215l.557-.56c.306-.307.575-.608.598-.669.095-.257.006-.523-.237-.703-.093-.069-.3-.085-2.412-.189-2.828-.138-2.975-.14-3.142-.038zM9.18 6.083a.38.38 0 00-.081.185c0 .103 5.504 5.625 5.64 5.66.146.037.299-.1.314-.281l.012-.15-2.758-2.759c-2.649-2.65-2.764-2.759-2.902-2.759-.109 0-.164.026-.225.104zM1.118 9.279C.934 9.382.94 9.186.94 14.01v4.562H.657c-.33.001-.444.048-.568.232-.086.128-.089.162-.089 1 0 1.282-.035 1.249 1.296 1.231l.899-.012.128-.128c.121-.121.129-.145.142-.46l.014-.333H7.02c2.498 0 4.57-.011 4.606-.025.095-.037.183-.234.154-.349-.056-.227.214-.215-4.746-.215H2.479l-.014-.332c-.013-.316-.02-.34-.142-.461-.122-.122-.146-.13-.46-.142l-.333-.014V14c0-4.287-.005-4.566-.07-4.642-.085-.102-.24-.137-.342-.08zm4.005.861c-.078.061-.103.117-.103.225 0 .139.109.253 2.758 2.903l2.758 2.759.15-.013c.182-.015.32-.168.282-.313-.035-.137-5.557-5.642-5.66-5.642a.38.38 0 00-.185.081zm-3.24 9.666v.648H.587v-1.295h1.294v.647zm17.609 0v.648h-1.295v-1.295h1.295v.647z" fill="currentColor"/></symbol><symbol id="video" viewBox="0 0 21 20" fill="none"><path fill-rule="evenodd" clip-rule="evenodd" d="M9.426.025c-2.462.26-4.68 1.27-6.389 2.911A9.892 9.892 0 00.08 8.568c-.104.654-.106 2.194-.003 2.835a9.886 9.886 0 002.98 5.669c2.07 1.975 4.83 3.015 7.76 2.922 1.593-.05 3.018-.396 4.398-1.068 2.746-1.338 4.747-3.758 5.458-6.604.128-.513.245-1.21.245-1.459 0-.087.018-.17.041-.183.025-.015.041-.3.041-.728 0-.46-.014-.695-.041-.68-.025.015-.04-.04-.04-.14 0-.453-.246-1.598-.494-2.303-.939-2.668-3.03-4.86-5.721-6a11.74 11.74 0 00-2.717-.748c-.504-.073-2.069-.108-2.56-.056zM7.733 5.739a.809.809 0 00-.287.242l-.11.157-.01 3.812-.01 3.812.087.172c.142.282.5.449.818.382.132-.028 5.814-3.612 6.033-3.807a.606.606 0 00.232-.513.605.605 0 00-.232-.514c-.16-.14-5.773-3.706-5.94-3.773a.687.687 0 00-.581.03zm.649 4.257v3.057l.118-.072a398.99 398.99 0 004.673-2.985c0-.016-4.145-2.664-4.673-2.986l-.118-.072v3.058zM0 9.996c0 .398.006.56.014.361a11.7 11.7 0 000-.723C.006 9.435 0 9.598 0 9.996z" fill="currentColor"/></symbol><symbol id="video-outline" viewBox="0 0 20 20" fill="none"><path fill-rule="evenodd" clip-rule="evenodd" d="M8.977.025c-2.344.26-4.457 1.27-6.084 2.911C1.373 4.468.408 6.398.077 8.568c-.1.654-.102 2.194-.003 2.835.338 2.203 1.303 4.13 2.838 5.669a9.883 9.883 0 007.39 2.922c1.517-.05 2.874-.396 4.188-1.068a10.048 10.048 0 005.198-6.604c.123-.513.234-1.21.234-1.459 0-.087.017-.17.039-.183.024-.015.039-.3.039-.728 0-.46-.014-.695-.039-.68-.024.015-.039-.04-.039-.14 0-.453-.233-1.598-.47-2.303a10.097 10.097 0 00-5.448-6 10.77 10.77 0 00-2.588-.748c-.48-.073-1.97-.108-2.439-.056zM8.88 1.06a8.994 8.994 0 00-7.722 7.214c-.427 2.223-.01 4.535 1.159 6.428a8.983 8.983 0 0013.246 2.345c.39-.307 1.213-1.143 1.499-1.52 1.26-1.671 1.884-3.504 1.884-5.532 0-2.427-.915-4.64-2.63-6.359-1.259-1.262-2.727-2.064-4.5-2.456-.777-.172-2.084-.226-2.936-.12zM7.365 5.74a.781.781 0 00-.273.242l-.104.157-.01 3.812-.011 3.812.083.172a.723.723 0 00.78.382c.126-.028 5.536-3.612 5.745-3.807a.62.62 0 00.221-.513.618.618 0 00-.22-.514c-.152-.14-5.499-3.706-5.658-3.773a.627.627 0 00-.553.03zm.617 4.257v3.057l.113-.072c.503-.322 4.45-2.97 4.45-2.985 0-.016-3.947-2.664-4.45-2.986l-.113-.072v3.058zM0 9.996c0 .398.006.56.013.361.007-.198.007-.524 0-.723C.006 9.435 0 9.598 0 9.996z" fill="#2B3546"/></symbol><symbol id="zoom" viewBox="0 0 14 15" fill="none"><path d="M14 13.881L9.255 9.137A5.224 5.224 0 0010.5 5.75 5.256 5.256 0 005.25.5 5.256 5.256 0 000 5.75 5.256 5.256 0 005.25 11c1.29 0 2.471-.47 3.387-1.245L13.38 14.5l.619-.619zm-8.75-3.756A4.38 4.38 0 01.875 5.75 4.38 4.38 0 015.25 1.375 4.38 4.38 0 019.625 5.75a4.38 4.38 0 01-4.375 4.375z" fill="currentColor"/></symbol><symbol id="plus" viewBox="0 0 16 17" fill="none"><path d="M7.15 16.248V9.095H0V7.401h7.15V.248h1.662v7.153H16v1.694H8.812v7.153H7.15z" fill="currentColor"/></symbol><symbol id="clock" viewBox="0 0 25 26" fill="none"><path fill-rule="evenodd" clip-rule="evenodd" d="M11.222.967c-2.928.324-5.531 1.567-7.58 3.62C1.714 6.52.516 8.91.092 11.672c-.121.79-.121 2.728 0 3.519.424 2.757 1.624 5.152 3.55 7.083 2.473 2.478 5.74 3.771 9.234 3.655a11.974 11.974 0 004.563-1.02c4.015-1.724 6.99-5.73 7.418-9.987.03-.296.074-.576.099-.622.062-.12.057-1.812-.005-1.773-.03.018-.049-.05-.049-.174 0-.325-.138-1.193-.291-1.83-.823-3.43-3.022-6.322-6.124-8.058-1.243-.695-2.726-1.197-4.217-1.427-.6-.092-2.463-.135-3.048-.07zm.829 4.538c-.194.121-.348.293-.412.462-.035.093-.052 1.357-.052 3.911 0 3.551.006 3.784.089 3.944.062.12.772.722 2.378 2.017 1.259 1.015 2.37 1.89 2.47 1.943.638.34 1.42-.244 1.26-.944-.084-.368.037-.259-2.539-2.322l-1.877-1.505-.025-3.517c-.018-2.548-.04-3.545-.081-3.616a1.45 1.45 0 00-.44-.41c-.17-.087-.605-.067-.771.037zM0 13.43c0 .498.007.701.016.452.009-.248.009-.655 0-.904S0 12.933 0 13.43z" fill="currentColor"/></symbol><symbol id="place" viewBox="0 0 22 27" fill="none"><path d="M11 .598c5.588 0 10.135 4.32 10.135 9.628 0 7.103-9.351 15.546-9.75 15.902a.58.58 0 01-.771 0c-.399-.356-9.75-8.799-9.75-15.902C.864 4.917 5.411.598 11 .598zm0 14.977c3.104 0 5.63-2.4 5.63-5.349 0-2.95-2.526-5.35-5.63-5.35-3.105 0-5.631 2.4-5.631 5.35 0 2.95 2.526 5.35 5.63 5.35z" fill="currentColor"/></symbol><symbol id="mail" viewBox="0 0 28 23" fill="none"><path fill-rule="evenodd" clip-rule="evenodd" d="M3.085 3.558L14 11.167l10.915-7.609c-.203-.4-.62-.677-1.097-.677H4.182c-.476 0-.894.277-1.097.677zm21.96 2.893l-10.34 7.209a1.231 1.231 0 01-1.408 0L2.955 6.45v12.32c0 .67.555 1.222 1.227 1.222h19.636c.672 0 1.227-.553 1.227-1.222V6.45zM.5 4.103C.5 2.083 2.154.437 4.182.437h19.636c2.028 0 3.682 1.647 3.682 3.666V18.77c0 2.02-1.654 3.666-3.682 3.666H4.182C2.154 22.436.5 20.79.5 18.77V4.103z" fill="currentColor"/></symbol><symbol id="building-house" viewBox="0 0 49 50" fill="none"><path fill-rule="evenodd" clip-rule="evenodd" d="M23.645.771c-.6.28-.816.537-1.919 2.293-.593.944-2.202 3.495-3.574 5.667l-3.722 5.897a3479.24 3479.24 0 01-2.279 3.606c-1.13 1.785-1.205 2.047-.693 2.428.393.291.795.135 1.144-.444.145-.241.738-1.185 1.317-2.098.58-.913 2.124-3.36 3.432-5.439 1.309-2.078 2.594-4.113 2.857-4.522.262-.41 1.213-1.91 2.113-3.337 1.734-2.747 1.943-2.973 2.503-2.705.318.153.36.216 5.463 8.332a7123.721 7123.721 0 007.9 12.537l4.951 7.854c3.804 6.032 3.728 5.906 3.64 6.048-.082.134-1.044.696-1.19.696-.061 0-.9-1.25-1.862-2.777l-4.853-7.7a4319.652 4319.652 0 01-3.82-6.068c-.394-.63-1.4-2.227-2.235-3.549a3396.135 3396.135 0 01-6.296-10.003c-.763-1.22-1.504-2.294-1.645-2.388-.53-.354-.723-.163-2.235 2.229l-5.262 8.33c-5.298 8.396-8.7 13.78-12.275 19.435-.866 1.37-1.625 2.49-1.687 2.49-.145 0-1.106-.562-1.188-.695-.085-.136-.026-.239 1.773-3.075a3403.95 3403.95 0 003.155-4.988l2.598-4.11c.555-.875 1.009-1.704 1.009-1.843 0-.374-.371-.653-.813-.61-.361.035-.492.222-3.444 4.903a2798.502 2798.502 0 01-4.4 6.957c-1.24 1.95-1.33 2.13-1.33 2.662 0 .716.2 1.029 1.002 1.561l.627.416v1.202l-.871.044c-.812.041-.893.069-1.202.415l-.332.371v1.666c0 2.705-.239 2.561 4.265 2.564l3.52.003v3.572l.39.39.39.389h3.568l.374-.334.374-.334.036-1.842.037-1.841h4.22v1.606c0 2.622.12 2.745 2.677 2.745 1.611 0 1.666-.008 2.005-.294.474-.399.584-.885.584-2.597l.001-1.46h4.121l.002 1.46c0 1.712.11 2.198.584 2.597.339.286.394.294 2.005.294 2.557 0 2.677-.123 2.677-2.745v-1.606h4.22l.037 1.841.036 1.842.383.342.382.341 1.831-.036 1.832-.037.333-.373.334-.374v-3.546h7.065l.299-.277c.408-.378.445-.602.402-2.455-.037-1.587-.043-1.62-.353-1.93-.276-.275-.42-.32-1.16-.357l-.844-.042-.06-.532c-.034-.293-.036-.572-.006-.62.03-.048.337-.268.684-.49.745-.477 1.142-1.186 1.009-1.804-.043-.201-.575-1.155-1.181-2.119-1.23-1.954-2.481-3.939-4.994-7.922-2.263-3.587-7.083-11.24-9.448-14.999-5.007-7.96-6.112-9.703-6.381-10.06C25.71.703 24.46.392 23.645.772zm.146 14.993l-.031 2.438-1.918-1.848c-1.055-1.016-1.918-1.889-1.918-1.94 0-.05.863-1.462 1.918-3.137l1.918-3.046.03 2.548c.018 1.401.018 3.645 0 4.985zm2.97-5.2c.693 1.101 1.52 2.42 1.839 2.93l.578.927-1.936 1.934-1.937 1.934v-4.974c0-2.735.044-4.924.097-4.864.053.06.665 1.01 1.358 2.112zm-5.75 6.984l1.833 1.83h-3.006c-1.653.001-3.005-.035-3.005-.078 0-.13 2.193-3.585 2.273-3.583.04.001.898.825 1.906 1.831zm10.2.08l1.06 1.694-2.927.03c-1.61.017-2.951.008-2.98-.02-.101-.102 3.579-3.598 3.683-3.497.058.055.581.863 1.165 1.794zm2.96 4.702c.5.802 1.38 2.204 1.957 3.117.577.913 2.38 3.773 4.006 6.355a3006.107 3006.107 0 004.144 6.566c.092.147.317.353.5.458.285.161.334.259.334.67l.001.483-3.559.033c-3.37.032-3.567.045-3.72.256a.773.773 0 000 .93c.154.211.378.224 4.951.279l4.79.057v2.06H1.434v-2.06l17.184-.057c14.336-.048 17.217-.084 17.375-.215.107-.088.19-.323.19-.537 0-.713-.118-.737-3.69-.737h-3.18v-7.392c0-5.22-.038-7.466-.128-7.643-.335-.655-.267-.645-4.681-.645s-4.346-.01-4.68.645c-.091.177-.129 2.424-.129 7.643v7.392h-15.8l.004-.486c.004-.418.056-.52.362-.716.24-.154.928-1.13 2.095-2.977 5.596-8.854 9.253-14.673 9.302-14.798.043-.113 1.913-.143 8.83-.14l8.775.002.908 1.457zm-6.347 4.262v.916h-6.64v-1.832h6.64v.916zm0 3.664v1.26h-6.64v-2.52h6.64v1.26zM11.38 31.718c-.46.373-.5.615-.5 3.002 0 2.507.063 2.813.627 3.07.202.093 1.085.137 2.708.137h2.408l.334-.334.335-.335v-5.073l-.335-.335-.334-.334-2.5.002c-2.194.002-2.528.027-2.743.2zm20.787.132l-.334.335v2.419c0 2.663.059 2.949.664 3.2.231.095 1.06.126 2.763.101l2.432-.035.276-.321c.274-.319.276-.343.276-2.843v-2.521l-.334-.335-.335-.334h-5.073l-.335.334zm-16.275 2.843l.032 1.746h-3.556v-3.555l1.746.031 1.746.032.031 1.746zm20.953 0l.031 1.746H33.32v-3.555l1.746.031 1.746.032.032 1.746zm-9.02-.372v1.316h-6.64v-2.633h6.64v1.317zm0 4.179v1.488h-6.64v-2.977h6.64V38.5zM11.51 46.514v1.431H9.22l-.033-1.31c-.018-.72-.005-1.378.027-1.463.045-.118.322-.147 1.178-.122l1.118.033v1.431zm9.446 0v1.489h-2.29v-2.977h2.29v1.488zm9.388 0v1.489h-2.29v-2.977h2.29v1.488zm9.446 0v1.431l-1.116.033-1.117.033v-2.993l1.117.032 1.116.033v1.431z" fill="currentColor"/></symbol><symbol id="building-baths" viewBox="0 0 49 52" fill="none"><path fill-rule="evenodd" clip-rule="evenodd" d="M3.061.22C1.512.72.427 1.99.073 3.718c-.185.905-.053 1.58.785 4.03a28.305 28.305 0 011.27 5.69c.069.616.314 2.284.545 3.708.23 1.424.42 2.672.42 2.772 0 .1-.243.313-.54.473-.734.393-1.056.944-1.048 1.79.009 1.013.14 1.637.463 2.204.323.567.764.853 1.518.983l.494.085.518 3.28 1.415 8.934.897 5.653-.49.418c-.8.683-.989 1.495-.685 2.95.165.788.926 1.616 1.606 1.745.234.044.426.143.426.219 0 .076.154.467.342.868.412.875 1.216 1.659 2.163 2.108l.683.323 14.31.033c15.793.036 14.983.072 16.221-.724.812-.522 1.504-1.492 1.817-2.545.033-.109.212-.235.4-.281.564-.139 1.192-.628 1.414-1.101.328-.698.48-1.857.321-2.452-.135-.506-.587-1.099-1.026-1.344-.23-.128-.227-.168.098-2.24 2.734-17.44 2.458-15.884 2.835-15.968.95-.21 1.434-.88 1.68-2.327.221-1.292-.037-2.014-.93-2.598l-.278-.182.26-1.52c.36-2.114.198-3.078-.653-3.88-.172-.163-.313-.343-.313-.401 0-.058.325-.589.722-1.18.9-1.337 1.084-1.778 1.082-2.589-.002-1.161-.798-2.389-1.83-2.824-.614-.259-1.838-.239-2.445.04-.755.347-1.423 1.204-1.74 2.233-.15.485-.52 1.524-.823 2.31l-.552 1.43-16.243-.032-16.244-.03-.151-.912c-.285-1.725-.332-4.862-.102-6.827.23-1.956.175-2.571-.314-3.54-.402-.8-.785-1.247-1.463-1.71-1.165-.798-2.523-1-3.847-.572zm2.5 1.571c.745.347 1.342 1.016 1.576 1.764.192.616.192.769.005 2.462-.274 2.486-.253 3.783.113 7.064l.085.76H3.724l-.085-.7c-.277-2.298-.74-4.265-1.577-6.71-.486-1.416-.552-1.721-.493-2.294.194-1.903 2.293-3.136 3.992-2.346zm41.051 7.616a1.5 1.5 0 01.673 1.266c0 .39-.186.752-1.096 2.13-.804 1.218-1.676 2.846-3.28 6.12-4.12 8.414-4.268 8.75-4.813 10.93-.727 2.91-.736 6.099-.025 9.062.274 1.137.328 1.632.325 2.947-.004 1.377-.045 1.706-.323 2.553-1.752 5.348-7.726 7.67-12.143 4.72-3.23-2.155-4.35-6.595-2.615-10.36.948-2.058 2.218-3.27 4.686-4.472 2.84-1.384 4.555-2.58 6.26-4.371 1.848-1.94 2.428-2.897 5.258-8.676 3.59-7.331 3.854-7.918 4.6-10.24.372-1.154.637-1.546 1.208-1.785.36-.15.906-.075 1.285.176zM9.832 15.39c0 .05.108 1.104.24 2.34.13 1.238.239 2.29.24 2.34 0 .05-1.245.092-2.77.092-2.114 0-2.784-.036-2.829-.153-.113-.299-.752-4.529-.698-4.619.03-.05 1.352-.09 2.937-.09 1.584 0 2.88.04 2.88.09zm7.478 1.176c.043.663.097 1.73.12 2.37l.043 1.165-2.787.033-2.786.032-.07-.458c-.178-1.16-.443-4.088-.384-4.242.054-.142.555-.165 2.925-.139l2.861.033.078 1.206zm7.294 1.197l.033 2.403-2.8-.032-2.8-.033-.127-2.31c-.07-1.27-.106-2.351-.082-2.403.025-.051 1.327-.078 2.894-.06l2.85.032.032 2.403zm7.263-1.127a83.167 83.167 0 01-.12 2.371l-.076 1.094-2.738.033-2.737.033v-2.353c0-1.294.037-2.39.082-2.436.046-.046 1.332-.068 2.858-.05l2.775.032-.044 1.277zm7.597-1.246c.026.05-.022.756-.106 1.569-.132 1.28-.21 1.592-.583 2.34l-.43.863H33.26l.087-2.336c.047-1.285.113-2.38.145-2.432.074-.121 5.91-.125 5.972-.004zm7.034.891c.196.388.19.76-.034 2.164-.306 1.922-.148 1.717-1.32 1.717-.595 0-1.02-.05-1.02-.12 0-.261 1.99-4.134 2.104-4.095.067.022.189.172.27.334zm-8.992 5.464c0 .068-.217.56-.483 1.094l-.482.97H3.329l-.102-.274c-.161-.429-.267-1.475-.165-1.622a.684.684 0 01.273-.204c.343-.131 34.171-.096 34.171.036zm9.875.119c.133.203.033 1.395-.145 1.732-.102.192-.35.213-2.515.213-1.321 0-2.402-.025-2.402-.056 0-.147.9-1.961 1.013-2.044.072-.052.985-.079 2.03-.06 1.529.026 1.923.068 2.019.215zm-36.36 4.881c.08.746.2 1.456.264 1.58.176.332.66.41 1.03.165l.314-.208-.085-1.446-.086-1.447h5.29l.075 1.064c.042.585.236 4.264.431 8.176.196 3.911.386 7.453.422 7.871l.067.76h-2.23c-1.226 0-2.229-.024-2.229-.053 0-.03-.133-1.274-.295-2.766-.163-1.492-.435-4.08-.607-5.752-.373-3.643-.352-3.534-.718-3.777-.357-.236-.723-.14-.98.254-.17.264-.154.594.19 3.85.554 5.242.846 8.05.846 8.153 0 .05-1.002.09-2.226.09-2.206 0-2.226-.002-2.226-.264 0-.145-.133-1.089-.296-2.097-.433-2.676-.941-5.897-1.69-10.707-.364-2.34-.69-4.378-.724-4.528l-.062-.274h5.38l.146 1.356zm13.61 3.178v4.534l-.72.748c-1.853 1.926-2.889 4.444-2.889 7.024v1.046l-.39-.038-.392-.038-.204-3.89c-.112-2.14-.316-5.996-.453-8.57-.136-2.575-.248-4.832-.247-5.015l.002-.335h5.294v4.534zm6.693-2.74c-.045.986-.114 2.19-.155 2.674l-.073.881-.856.573c-.723.484-3.789 2.102-3.982 2.102-.034 0-.062-1.805-.062-4.012V25.39h5.209l-.081 1.794zm4.377-1.716c0 .2-1.403 2.141-2.098 2.9l-.778.852-.005-.912a28.43 28.43 0 01.072-1.915l.077-1.003h1.366c.752 0 1.366.035 1.366.078zm9.626.03c0 .06-.3 2.016-.666 4.346l-1.21 7.703a519.974 519.974 0 01-.717 4.484c-.096.56-.174 1.066-.174 1.124 0 .058-.582.106-1.294.106h-1.293l-.013-1.49c-.009-1.088-.083-1.783-.277-2.583-.658-2.716-.783-5.229-.379-7.618.3-1.773.719-3.101 1.517-4.81l.639-1.37h1.934c1.063 0 1.933.049 1.933.108zM28.995 35.06c-2.502.681-4.574 2.879-5.262 5.582-.239.939-.235 2.687.007 3.635.853 3.342 3.945 5.508 7.23 5.066 1.156-.155 1.952-.44 2.956-1.056.747-.458.94-.817.712-1.324-.227-.503-.623-.491-1.602.046-1.62.892-2.9 1.082-4.298.642-2.034-.639-3.326-2.222-3.648-4.468-.13-.896-.118-1.091.114-2.04.583-2.388 2.155-4.028 4.437-4.628.831-.219 1.264-.229 2.114-.048 2.044.434 3.549 1.97 4.02 4.103a6.148 6.148 0 01-.156 3.13c-.24.776-.148 1.2.293 1.356.543.19.822-.004 1.106-.771.772-2.086.5-4.55-.712-6.43a6.505 6.505 0 00-3.595-2.743c-.92-.288-2.756-.313-3.716-.052zm-7.42 10.817l.373 1.031H7.431l-.169-.273c-.275-.446-.34-1.22-.128-1.527l.185-.267 6.942.002 6.942.002.373 1.032zm22.193-.782c.17.322.036 1.39-.206 1.634-.144.145-.616.179-2.515.179-1.286 0-2.338-.021-2.338-.047s.156-.395.347-.82c.191-.426.38-.87.418-.987.063-.191.274-.213 2.115-.213 1.95 0 2.051.012 2.18.254zm-30.404 4.032c.042.35.076.788.077.972v.334h-1.076c-1.085 0-1.465-.095-2.092-.526-.341-.234-1.042-1.12-1.042-1.315 0-.057.913-.104 2.028-.104h2.029l.076.639zm5.614-.304c0 .183.035.621.077.972l.076.639H15.04l-.076-.639c-.042-.35-.077-.788-.077-.972l-.001-.335h4.091v.335zm4.795.517c.473.469.859.908.859.976 0 .08-.707.112-2.016.09l-2.015-.033-.035-.943-.035-.942h2.384l.858.852zm17.824-.688c0 .379-.751 1.199-1.36 1.485-.519.244-.815.294-1.74.295l-1.113.002.068-.7c.137-1.381-.1-1.246 2.162-1.246 1.585 0 1.983.033 1.983.164zm-5.775 1.66c0 .067-.085.121-.188.121s-.154-.054-.113-.121c.04-.067.125-.122.187-.122.063 0 .114.055.114.122z" fill="currentColor"/></symbol><symbol id="play" viewBox="0 0 14 16" fill="none"><path d="M12.99 6.647a1.34 1.34 0 010 2.321l-10.98 6.34A1.34 1.34 0 010 14.147V1.467A1.34 1.34 0 012.01.308l10.98 6.34z" fill="currentColor"/></symbol><symbol id="whatsapp" viewBox="0 0 19 20" fill="none"><path fill-rule="evenodd" clip-rule="evenodd" d="M.744 18.576l3.537-.927.342.202a9.333 9.333 0 004.757 1.303h.003c5.152 0 9.344-4.191 9.346-9.343a9.284 9.284 0 00-2.734-6.61A9.284 9.284 0 009.387.461C4.232.461.04 4.652.037 9.803c0 1.766.494 3.485 1.43 4.972l.221.354-.944 3.447zm13.92-6.344c.196.095.328.159.384.253.07.117.07.68-.163 1.335-.235.656-1.357 1.255-1.897 1.336-.484.072-1.096.102-1.77-.111a16.39 16.39 0 01-1.601-.592c-2.634-1.137-4.414-3.689-4.75-4.171a3.473 3.473 0 00-.05-.07l-.002-.003c-.149-.198-1.145-1.527-1.145-2.902 0-1.294.635-1.972.928-2.284.02-.022.039-.041.055-.06.258-.28.562-.351.75-.351a11.163 11.163 0 01.6.01c.164 0 .369-.001.57.482l.31.753c.242.588.51 1.238.556 1.333.07.14.117.304.024.492l-.04.08c-.07.143-.122.249-.241.388l-.144.173a4.65 4.65 0 01-.278.32c-.14.14-.287.291-.123.572.164.282.728 1.201 1.563 1.946a7.25 7.25 0 002.074 1.31c.077.034.14.061.186.084.28.14.444.117.608-.07.164-.188.703-.82.89-1.101.187-.282.374-.235.632-.141s1.639.773 1.92.914l.154.075z" fill="currentColor"/></symbol><symbol id="mail-fill" viewBox="0 0 21 16" fill="none"><path d="M10.615 6.715c1.725 0 10.112-4.36 10.112-4.36l.013-.778c0-.86-.755-1.558-1.688-1.558H2.177C1.245.019.49.717.49 1.577v.694s8.48 4.444 10.125 4.444z" fill="currentColor"/><path d="M10.615 8.857C8.969 8.857.504 4.692.504 4.692L.49 14.038c0 .86.756 1.558 1.687 1.558h16.875c.933 0 1.688-.698 1.688-1.558l-.013-9.346s-8.308 4.165-10.112 4.165z" fill="currentColor"/></symbol><symbol id="layout" viewBox="0 0 20 20" fill="none"><path fill-rule="evenodd" clip-rule="evenodd" d="M4.809 1.794L0 3.564v12.389l4.992 2.024L9.984 20l3.86-1.56a299.97 299.97 0 005.008-2.064L20 15.872V9.785c0-4.012-.078-6.134-.23-6.227-.417-.256-9.687-3.58-9.922-3.558-.127.012-2.394.82-5.04 1.794zm4.7 4.671v5.4l-4.1 1.476c-2.253.812-4.22 1.522-4.37 1.58-.215.081-.274-1.068-.274-5.308V4.202l4.208-1.545c2.314-.85 4.281-1.555 4.371-1.568.09-.014.164 2.406.164 5.376zm5.518-3.763l4.099 1.475v5.419c0 4.25-.06 5.394-.274 5.306a22.48 22.48 0 00-1.092-.379l-.82-.266V6.33l-2.185-.798c-1.202-.439-2.284-.737-2.405-.663-.132.081-.219 1.589-.219 3.817 0 2.026-.067 3.683-.148 3.683-.082 0-.475-.117-.875-.26l-.726-.262V6.433c0-4.243.06-5.392.274-5.31.15.056 2.117.767 4.371 1.579zm-10 2.903l-1.967.813-.062 2.36c-.036 1.362.03 2.45.155 2.575.21.208 3.679-.947 4.34-1.446.435-.327.277-5.018-.17-5.073-.18-.023-1.214.324-2.296.771zm1.858 1.959V9.28l-1.423.566c-.782.312-1.471.567-1.53.567-.059 0-.107-.76-.107-1.687V7.04l1.476-.583c.81-.32 1.5-.588 1.53-.596.03-.007.054.759.054 1.703zm7.65-1.194l1.421.516.06 3.492.06 3.493-1.152-.402a53.08 53.08 0 01-1.536-.557c-.342-.138-.383-.523-.383-3.61 0-1.9.025-3.453.055-3.45.03.001.694.235 1.476.518zm-.383 7.76c2.134.765 3.88 1.447 3.88 1.515.001.145-7.64 3.306-8.008 3.314-.346.007-8.167-3.173-8.164-3.319.003-.167 7.929-3.03 8.195-2.96.12.03 1.964.683 4.097 1.45z" fill="#2B3546"/></symbol><symbol id="photo" viewBox="0 0 22 18" fill="none"><path d="M21 15.222c0 .472-.192.924-.532 1.257a1.84 1.84 0 01-1.286.521H2.818a1.84 1.84 0 01-1.285-.52A1.758 1.758 0 011 15.221V5.444c0-.471.192-.923.533-1.257a1.84 1.84 0 011.285-.52h3.637L8.273 1h5.454l1.819 2.667h3.636c.482 0 .945.187 1.286.52.34.334.532.786.532 1.257v9.778z" stroke="#2B3546" stroke-width="1.2" stroke-linecap="round" stroke-linejoin="round"/><path d="M11 13.444c2.008 0 3.636-1.591 3.636-3.555 0-1.964-1.628-3.556-3.636-3.556S7.364 7.925 7.364 9.89 8.992 13.444 11 13.444z" stroke="#2B3546" stroke-width="1.2" stroke-linecap="round" stroke-linejoin="round"/></symbol><symbol id="door" viewBox="0 0 24 24" fill="none"><path d="M20.594 20.163V4.678h-4.056V1.222L4.371 3.319v16.844H1.053v1.475h4.005l11.48 1.584V6.152h2.581v15.486h4.056v-1.475h-2.581zm-5.53 1.366l-9.218-1.27V4.561l9.217-1.59V21.53z" fill="#2B3546"/><path d="M12.114 11.315h1.474v2.95h-1.474v-2.95z" fill="#2B3546"/><path d="M20.594 20.163V4.678h-4.056V1.222L4.371 3.319v16.844H1.053v1.475h4.005l11.48 1.584V6.152h2.581v15.486h4.056v-1.475h-2.581zm-5.53 1.366l-9.218-1.27V4.561l9.217-1.59V21.53z" stroke="#fff" stroke-width=".45"/><path d="M12.114 11.315h1.474v2.95h-1.474v-2.95z" stroke="#fff" stroke-width=".45"/></symbol><symbol id="home" viewBox="0 0 22 23" fill="none"><path fill-rule="evenodd" clip-rule="evenodd" d="M10.841.688C10.786.711.345 8.851.157 9.018a.42.42 0 00-.142.44c.032.13 1.555 1.693 1.75 1.796.15.079.266.077.424-.004l.127-.066v10.614h-.991c-.774 0-1.017.013-1.11.061-.285.148-.285.589 0 .737.18.092 21.39.092 21.568 0 .286-.148.286-.589 0-.737-.093-.048-.336-.061-1.11-.061h-.99v-2.039c0-2.19-.003-2.212-.222-2.325a.404.404 0 00-.417 0c-.22.113-.221.136-.221 2.325v2.039H5.239v-2.06c0-2.213-.002-2.234-.221-2.347a.404.404 0 00-.418 0c-.219.113-.22.134-.22 2.347v2.06H3.174l.011-5.657.011-5.656L7.099 7.44 11 4.395l3.9 3.043 3.9 3.043.022 2.125c.012 1.168.038 2.16.059 2.201.045.093.246.203.37.203a.47.47 0 00.38-.235c.036-.082.05-.595.05-1.852v-1.739l.127.066c.15.077.274.083.403.018.134-.068 1.656-1.584 1.73-1.723.094-.176.075-.317-.063-.473-.069-.078-.687-.576-1.373-1.108l-1.249-.966-.002-2.2c-.002-1.61-.016-2.23-.054-2.313-.102-.224-.174-.235-1.625-.235-1.41 0-1.526.015-1.617.203-.02.042-.047.487-.06.989l-.02.912-.538-.421C13.235 2.28 11.264.753 11.185.71a.464.464 0 00-.344-.023zm4.954 4.688c2.626 2.05 4.85 3.788 4.944 3.864l.169.137-.451.454c-.248.249-.464.453-.48.453-.017 0-2-1.536-4.406-3.414-2.425-1.892-4.43-3.426-4.495-3.44a.405.405 0 00-.238.033c-.065.033-2.068 1.581-4.45 3.44-2.384 1.86-4.347 3.381-4.365 3.381-.017 0-.233-.203-.48-.45-.288-.289-.434-.466-.408-.492C1.213 9.265 10.978 1.65 11 1.65c.012 0 2.17 1.677 4.796 3.726zm2.598-.674c0 1.262-.011 1.585-.054 1.559-.03-.018-.397-.3-.817-.628l-.763-.595V3.11h1.634v1.593zm-11.73 5.384c-.226.125-.217-.046-.219 4.486-.002 4.588-.011 4.4.234 4.51.085.04 1.15.052 4.325.052 4.577 0 4.39.01 4.501-.235.075-.162.075-8.475 0-8.638-.111-.244.077-.235-4.513-.233-3.425.001-4.246.012-4.329.058zm3.906 2.432v1.633H7.302v-3.265h3.267v1.632zm4.127 0v1.633h-3.267v-3.265h3.267v1.632zm-4.127 4.124v1.633H7.302V15.01h3.267v1.632zm4.127 0v1.633h-3.267V15.01h3.267v1.632zm-10.167-.89a.418.418 0 00-.136.272c-.02.153-.006.196.106.321.108.121.16.145.31.145.151 0 .202-.024.31-.145.112-.125.126-.168.106-.32-.031-.232-.187-.37-.416-.37a.414.414 0 00-.28.096zm14.513.177c-.372.207-.216.8.21.8.218 0 .43-.21.43-.426a.433.433 0 00-.64-.374z" fill="#2B3546"/></symbol><symbol id="bed" viewBox="0 0 23 17" fill="none"><path fill-rule="evenodd" clip-rule="evenodd" d="M3.266.692c-.212.053-.592.281-.713.429a2.56 2.56 0 00-.23.366l-.12.232-.012 3.282-.012 3.282-.21.032c-.26.04-.687.268-.834.447a2.53 2.53 0 00-.23.368l-.12.232-.014 1.65-.014 1.649H.514c-.2 0-.263.02-.352.112-.108.11-.11.118-.11.98 0 .861.002.87.11.98.089.092.152.112.354.112h.246v.798c0 .787.002.8.11.91.105.109.126.111.778.111.873 0 .816.057 1.018-1.012l.153-.807h16.464l.152.807c.202 1.069.145 1.013 1.019 1.013.652 0 .672-.003.778-.112.107-.11.11-.123.11-.91v-.798h.245c.202 0 .266-.02.355-.112.108-.11.109-.119.109-.98 0-.862-.001-.87-.11-.98-.088-.092-.152-.112-.351-.112h-.244l-.014-1.65-.013-1.649-.152-.286a1.72 1.72 0 00-.283-.4 1.713 1.713 0 00-.752-.36l-.207-.033-.013-3.282-.013-3.282-.151-.286c-.168-.319-.306-.456-.642-.638L18.88.673 11.14.666C6.883.662 3.34.674 3.265.692zm15.522.75a.84.84 0 01.276.235l.128.172.012 3.222.012 3.222h-.704l-.015-.921c-.016-.896-.02-.928-.135-1.154-.176-.343-.31-.485-.62-.658l-.28-.156H12.45l-.227.123c-.335.182-.473.319-.642.637l-.151.287-.015.921-.015.921h-.694l-.016-.921c-.015-.896-.02-.928-.135-1.154-.175-.343-.31-.485-.62-.658l-.28-.156H4.644l-.226.123c-.336.182-.474.319-.642.637l-.152.287-.015.921-.015.921h-.702V5.134c0-2.127.016-3.2.048-3.287.063-.17.21-.33.374-.405.203-.092 15.26-.093 15.475 0zm-9.226 4.73a.84.84 0 01.276.235l.128.172.014.857.014.856H4.31V7.5c0-.822.024-.971.191-1.157.206-.23.206-.23 2.638-.232 1.847-.001 2.302.01 2.422.062zm7.807 0a.84.84 0 01.276.235l.128.172.013.857.014.856h-5.683V7.5c0-.822.025-.971.192-1.157.205-.23.205-.23 2.637-.232 1.848-.001 2.303.01 2.423.062zm2.839 2.912a.84.84 0 01.275.235l.128.172.013 1.584.013 1.585H1.472v-1.52c0-1.577.01-1.684.192-1.886.217-.242-.315-.229 9.38-.231 7.611-.001 9.039.008 9.164.062zm1.135 4.668v.364H.763v-.728h20.58v.364zM2.08 14.97l-.103.546-.079.42h-.426v-1.09h.632l-.024.125zm18.553.42v.547h-.426l-.079-.421-.102-.546-.025-.125h.632v.546z" fill="#2B3546"/></symbol></defs></svg>