<svg width="235" height="56" fill="none" xmlns="http://www.w3.org/2000/svg"><path d="M0 .753V33.7h10.873v-8.613h3.53c8.377 0 14.779-2.918 14.779-12.143 0-9.273-6.401-12.19-14.78-12.19H0zm18.403 12.19c0 2.26-1.6 3.201-4.095 3.201h-3.435V9.696h3.435c2.495 0 4.095.941 4.095 3.248zm50.742 4.613c0 12.002 8.99 16.897 18.309 16.897 3.483 0 6.73-.659 9.649-1.977v-9.93c-1.695 1.505-4.848 2.352-8.237 2.352-4.33 0-8.566-2.165-8.566-7.342 0-5.883 4.283-8.143 8.801-8.143 2.918 0 5.93.989 7.766 2.26V1.977C93.95.659 90.561 0 87.172 0c-9.037 0-18.074 5.036-18.027 17.556z" fill="#2B3546"/><path d="M107.944 17.556c0 12.002 8.989 16.897 18.309 16.897 3.483 0 6.73-.659 9.648-1.977v-9.93c-1.694 1.505-4.847 2.352-8.236 2.352-4.331 0-8.567-2.165-8.567-7.342 0-5.883 4.284-8.143 8.802-8.143 2.918 0 5.93.989 7.766 2.26V1.977C132.748.659 129.359 0 125.97 0c-9.037 0-18.074 5.036-18.026 17.556zM139.873.753V33.7h10.873v-8.613h3.53c8.378 0 14.779-2.918 14.779-12.143 0-9.273-6.401-12.19-14.779-12.19h-14.403zm18.404 12.19c0 2.26-1.601 3.201-4.095 3.201h-3.436V9.696h3.436c2.494 0 4.095.941 4.095 3.248zm32.429 13.179L202.566.753h-11.578l-4.848 12.944L180.115.752H168.49l12.52 21.698-.518 1.035c-.612 1.412-2.024 1.883-3.812 1.883-1.271 0-2.683-.235-3.86-.659v8.755c2.165.612 4.142.988 5.978.988 5.459 0 9.084-2.212 11.908-8.33zm24.987-13.555V9.46h15.156V.753h-26.028V33.7h16.144c6.401 0 12.661-2.024 12.661-10.543 0-8.566-6.26-10.59-12.661-10.59h-5.272zm0 13.226v-5.319h3.907c1.882 0 3.247.565 3.247 2.683s-1.365 2.636-3.247 2.636h-3.907z" fill="#188B30"/><path d="M.055 48.502C.042 51.438 2.46 53 4.679 53c.945 0 1.827-.214 2.557-.592V51.35c-.604.428-1.423.642-2.33.642-1.827 0-3.793-1.133-3.78-3.49.012-2.52 1.915-3.616 3.742-3.616.831 0 1.663.215 2.305.643V44.47a5.343 5.343 0 00-2.482-.593c-2.293 0-4.624 1.563-4.636 4.624zm10.649 4.348v-5.116h2.217V46.8H7.466v.933h2.23v5.115h1.008zm4.269-5.04V46.8h-.908v8.82h1.008v-3.679c.441.517 1.185 1.058 2.344 1.058 1.726 0 3.024-1.36 3.024-3.175 0-1.814-1.298-3.175-3.024-3.175-1.16 0-1.903.542-2.444 1.16zm4.46 2.015c0 1.386-.958 2.243-2.13 2.243-1.083 0-1.89-.706-2.23-1.487V49.07c.34-.78 1.147-1.486 2.23-1.486 1.172 0 2.13.856 2.13 2.242zm2.042 0c0 2.067 1.588 3.175 3.226 3.175 1.65 0 3.225-1.108 3.225-3.175 0-2.066-1.575-3.175-3.225-3.175-1.638 0-3.226 1.11-3.226 3.175zm5.443 0c0 1.399-.983 2.218-2.217 2.218-1.235 0-2.218-.82-2.218-2.218 0-1.398.983-2.217 2.218-2.217 1.234 0 2.217.819 2.217 2.217zm3.311 3.025l3.704-4.423v4.422h1.008v-6.047h-.857l-3.704 4.422v-4.422h-1.008v6.047h.857zm9.094 0v-5.116h2.218V46.8h-5.456v.933h2.23v5.115h1.008zm2.749-3.025c0 2.155 1.563 3.175 3.352 3.175.794 0 1.587-.15 2.142-.44v-.983c-.517.29-1.248.491-1.991.491-1.222 0-2.369-.53-2.495-1.802h4.813c.378-1.713-.479-3.616-2.81-3.616-1.436 0-3.01 1.059-3.01 3.175zm4.927-.44H43.08c.076-1.185 1.033-1.802 2.067-1.802 1.537 0 1.94 1.159 1.852 1.801zm4.509-1.651h2.457v5.115h1.008v-6.047h-4.448c-.113 3.25-.466 5.291-1.537 5.291-.126 0-.264-.025-.403-.075v.793c.264.101.504.139.73.139 1.563 0 1.991-2.117 2.193-5.216zm8.199 5.116c1.474 0 2.344-.845 2.344-1.966 0-1.122-.87-1.966-2.344-1.966h-1.864v-2.117h-1.008v6.048h2.872zm-1.864-3.025h1.738c.882 0 1.45.34 1.45 1.059 0 .718-.568 1.058-1.45 1.058h-1.738v-2.117zm5.085.025c0 2.155 1.65 3.15 3.238 3.15.756 0 1.398-.138 1.965-.415v-1.008a3.661 3.661 0 01-1.826.491c-1.185 0-2.37-.693-2.37-2.243 0-1.587 1.223-2.242 2.395-2.242.642 0 1.285.189 1.738.541v-.982c-.516-.34-1.184-.492-1.864-.492-1.575 0-3.276.996-3.276 3.2zm9.198 3v-5.116h2.218V46.8h-5.456v.933h2.23v5.115h1.008zm6.776 0c1.31 0 1.953-.681 1.953-1.677 0-.756-.504-1.234-.995-1.398.453-.202.806-.706.806-1.336 0-1.07-.806-1.638-1.864-1.638h-3.314v6.048h3.414zm-2.406-2.622h2.306c.503 0 1.045.164 1.045.883 0 .667-.453.856-1.083.856h-2.268v-1.739zm0-2.544H78.7c.428 0 .945.176.945.856 0 .618-.416.82-.945.82h-2.205v-1.676zm5.479 2.141c0 2.067 1.587 3.175 3.225 3.175 1.65 0 3.226-1.108 3.226-3.175 0-2.066-1.575-3.175-3.226-3.175-1.638 0-3.225 1.11-3.225 3.175zm5.443 0c0 1.399-.983 2.218-2.218 2.218-1.235 0-2.217-.82-2.217-2.218 0-1.398.982-2.217 2.217-2.217s2.218.819 2.218 2.217zm5.969 4.662V52.85h5.266v1.638h.983v-2.545h-.882v-5.14h-4.51c.025 2.255-.278 3.804-1.034 5.14h-.806v2.545h.983zm1.827-6.778h2.532v4.233h-3.44c.555-1.16.857-2.419.908-4.233zm5.229 2.116c0 2.067 1.588 3.175 3.226 3.175 1.65 0 3.225-1.108 3.225-3.175 0-2.066-1.575-3.175-3.225-3.175-1.638 0-3.226 1.11-3.226 3.175zm5.443 0c0 1.399-.983 2.218-2.217 2.218-1.235 0-2.218-.82-2.218-2.218 0-1.398.983-2.217 2.218-2.217 1.234 0 2.217.819 2.217 2.217zm3.411 3.025v-4.562l1.966 2.986h.756l1.965-2.986v4.561h.958v-6.047h-1.096l-2.205 3.35-2.205-3.35h-1.096v6.047h.957zm7.092-3.025c0 2.067 1.588 3.175 3.226 3.175 1.65 0 3.225-1.108 3.225-3.175 0-2.066-1.575-3.175-3.225-3.175-1.638 0-3.226 1.11-3.226 3.175zm5.443 0c0 1.399-.982 2.218-2.217 2.218s-2.218-.82-2.218-2.218c0-1.398.983-2.217 2.218-2.217 1.235 0 2.217.819 2.217 2.217zm5.869 3.025c1.31 0 1.952-.681 1.952-1.677 0-.756-.504-1.234-.995-1.398.454-.202.806-.706.806-1.336 0-1.07-.806-1.638-1.864-1.638h-3.314v6.048h3.415zm-2.407-2.622h2.306c.504 0 1.046.164 1.046.883 0 .667-.454.856-1.084.856h-2.268v-1.739zm0-2.544h2.205c.428 0 .945.176.945.856 0 .618-.416.82-.945.82h-2.205v-1.676zm9.889 5.166l3.704-4.423v4.422h1.008v-6.047h-.857l-3.704 4.422v-4.422h-1.008v6.047h.857zm15.622-2.848c0-1.802-1.399-2.949-2.974-2.949-.945 0-1.801.467-2.23 1.134.252-.768.592-1.587 1.436-2.091 1.386-.806 2.357-.542 3.226-1.16v-1.058c-.882.857-2.079.404-3.818 1.475-1.083.68-1.864 2.078-1.864 4.107 0 2.293 1.31 3.54 3.137 3.54s3.087-1.108 3.087-2.998zm-5.216.025c0-1.02.844-2.016 2.104-2.016 1.323 0 2.104.87 2.104 2.016s-.781 2.016-2.104 2.016c-1.273 0-2.104-.87-2.104-2.016zm11.591 1.563v-2.37c0-1.688-1.021-2.57-2.634-2.57-.995 0-1.827.24-2.305.404v.982a5.547 5.547 0 012.204-.453c1.109 0 1.727.604 1.727 1.512v.214a8.232 8.232 0 00-1.676-.19c-1.298 0-2.734.48-2.734 2.042 0 1.273 1.058 1.84 2.129 1.84.983 0 1.751-.303 2.356-.807.177.53.618.73 1.109.73.252 0 .517-.05.756-.138v-.819c-.151.05-.315.089-.466.089-.265 0-.466-.101-.466-.467zm-4.385-.48c0-.882.957-1.146 1.839-1.146.492 0 1.109.088 1.538.176v1.11a2.851 2.851 0 01-2.067.881c-.667 0-1.31-.315-1.31-1.02zm7.406 1.74v-2.56h3.503v2.558h1.008v-6.047h-1.008v2.557h-3.503V46.8h-1.008v6.048h1.008zm9.247 0c1.474 0 2.344-.845 2.344-1.966 0-1.122-.87-1.966-2.344-1.966h-1.865v-2.117h-1.008v6.048h2.873zm-1.865-3.025h1.739c.882 0 1.449.34 1.449 1.059 0 .718-.567 1.058-1.449 1.058h-1.739v-2.117zm9.496 3.025l3.704-4.423v4.422h1.008v-6.047h-.857l-3.704 4.422v-4.422h-1.008v6.047h.857zm11.098-1.626c0-.781-.567-1.298-1.247-1.474.68-.151 1.121-.63 1.121-1.361 0-1.058-.869-1.751-2.558-1.751-.806 0-1.562.189-2.167.466v.945a4.88 4.88 0 012.054-.479c.945 0 1.663.29 1.663.958 0 .58-.529.78-1.21.78h-1.323v.933h1.323c.605 0 1.336.126 1.336.87 0 .78-.882.957-1.84.957-.73 0-1.587-.214-2.104-.491v.957c.567.277 1.374.466 2.23.466 1.676 0 2.722-.63 2.722-1.776zm10.528-1.222c0-1.802-1.399-2.949-2.974-2.949-.945 0-1.801.467-2.23 1.134.252-.768.592-1.587 1.437-2.091 1.386-.806 2.356-.542 3.225-1.16v-1.058c-.882.857-2.079.404-3.818 1.475-1.083.68-1.864 2.078-1.864 4.107 0 2.293 1.31 3.54 3.137 3.54s3.087-1.108 3.087-2.998zm-5.216.025c0-1.02.844-2.016 2.104-2.016 1.323 0 2.104.87 2.104 2.016s-.781 2.016-2.104 2.016c-1.273 0-2.104-.87-2.104-2.016zm7.584-2.217V46.8h-.907v8.82h1.008v-3.679c.441.517 1.184 1.058 2.343 1.058 1.726 0 3.024-1.36 3.024-3.175 0-1.814-1.298-3.175-3.024-3.175-1.159 0-1.902.542-2.444 1.16zm4.46 2.015c0 1.386-.957 2.243-2.129 2.243-1.084 0-1.89-.706-2.23-1.487V49.07c.34-.78 1.146-1.486 2.23-1.486 1.172 0 2.129.856 2.129 2.242zm2.043 0c0 2.155 1.562 3.175 3.351 3.175.794 0 1.588-.15 2.142-.44v-.983c-.517.29-1.247.491-1.991.491-1.222 0-2.369-.53-2.495-1.802h4.813c.378-1.713-.478-3.616-2.809-3.616-1.437 0-3.011 1.059-3.011 3.175zm4.926-.44h-3.919c.076-1.185 1.034-1.802 2.067-1.802 1.537 0 1.94 1.159 1.852 1.801zm5.782 3.465c1.31 0 1.953-.681 1.953-1.677 0-.756-.504-1.234-.996-1.398.454-.202.807-.706.807-1.336 0-1.07-.807-1.638-1.865-1.638h-3.314v6.048h3.415zm-2.407-2.622h2.306c.504 0 1.046.164 1.046.883 0 .667-.454.856-1.084.856h-2.268v-1.739zm0-2.544h2.205c.429 0 .945.176.945.856 0 .618-.416.82-.945.82h-2.205v-1.676zm6.903 5.166v-2.56h3.503v2.558h1.008v-6.047h-1.008v2.557h-3.503V46.8h-1.008v6.048h1.008zm11.288-1.26v-2.37c0-1.688-1.02-2.57-2.633-2.57-.995 0-1.827.24-2.306.404v.982a5.552 5.552 0 012.205-.453c1.109 0 1.726.604 1.726 1.512v.214a8.222 8.222 0 00-1.675-.19c-1.298 0-2.735.48-2.735 2.042 0 1.273 1.059 1.84 2.13 1.84.983 0 1.751-.303 2.356-.807.176.53.617.73 1.109.73.252 0 .516-.05.756-.138v-.819a1.53 1.53 0 01-.467.089c-.264 0-.466-.101-.466-.467zm-4.384-.48c0-.882.957-1.146 1.839-1.146.492 0 1.109.088 1.537.176v1.11a2.847 2.847 0 01-2.066.881c-.668 0-1.31-.315-1.31-1.02z" opacity=".6" fill="#1D1D1D"/><mask id="a" style="mask-type:alpha" maskUnits="userSpaceOnUse" x="30" y="0" width="37" height="36"><rect x="30.746" width="35.666" height="35.666" rx="17.833" fill="#188B30"/></mask><g mask="url(#a)"><rect x="30.746" width="35.666" height="35.666" rx="17.833" fill="#188B30"/><path fill-rule="evenodd" clip-rule="evenodd" d="M50.06 9.377l-.567.592.177.196c.356.392 1.696 1.519 2.307 1.94l.628.432.409-.422c.224-.232.408-.45.408-.486 0-.084-2.654-2.844-2.734-2.844-.034 0-.316.266-.628.592zm-6.215 2.09l-2.219 2.308 1.087 1.157c.598.636 1.322 1.43 1.608 1.765 1.66 1.94 2.687 3.73 3.284 5.724.155.517.221.663.29.638.05-.018.37-.208.713-.421 1.993-1.244 4.053-3.293 5.415-5.388.346-.532.901-1.53.901-1.621 0-.036-.351-.189-.781-.34a13.565 13.565 0 01-3.818-2.106c-.942-.737-1.586-1.332-2.915-2.694-.713-.731-1.308-1.33-1.322-1.33-.014 0-1.023 1.04-2.243 2.308zm4.11 2.972l.63.656-.63.656-.628.657-.647-.671-.646-.67.614-.642c.338-.353.63-.642.647-.642.018 0 .315.295.66.656zm8.62 1.98c-.854 1.75-1.974 3.328-3.451 4.864-1.32 1.373-2.777 2.524-4.267 3.372a9.365 9.365 0 00-.61.366c-.022.022-.017.195.012.384.028.189.095.736.147 1.216.053.48.108.885.123.9.041.043 1.386-.419 2.01-.691 3.648-1.594 6.732-4.885 8.22-8.773.219-.571.57-1.719.535-1.744a39.96 39.96 0 00-1.184-.153c-.644-.078-1.202-.155-1.24-.17-.04-.016-.167.168-.294.429zm-14.78 1.597c-.802.922-1.364 1.641-2.82 3.609-1.45 1.96-2.199 2.905-2.912 3.68-.282.306-1.985 2.032-3.786 3.836l-3.5 3.508-.228.228 1.78 1.677c.98.922 1.817 1.68 1.86 1.684.081.008 7.124-8.26 7.885-9.257.23-.3.967-1.346 1.64-2.325 1.36-1.98 1.938-2.751 2.657-3.541l.486-.535-.14-.253c-.21-.38-.788-1.212-1.185-1.706-.53-.66-1.068-1.276-1.113-1.276-.022 0-.303.302-.624.671z" fill="#fff"/></g></svg>